HIERARCHY
ROOT Hips
{
	OFFSET 0.000000 0.000000 0.000000
	CHANNELS 6 Xposition Yposition Zposition Zrotation Yrotation Xrotation 
	JOINT LHipJoint
	{
		OFFSET 0.000000 0.000000 0.000000
		CHANNELS 3 Zrotation Yrotation Xrotation
		JOINT LeftUpLeg
		{
			OFFSET 1.363060 -1.794630 0.839290
			CHANNELS 3 Zrotation Yrotation Xrotation
			JOINT LeftLeg
			{
				OFFSET 2.448110 -6.726130 0.000000
				CHANNELS 3 Zrotation Yrotation Xrotation
				JOINT LeftFoot
				{
					OFFSET 2.562200 -7.039590 0.000000
					CHANNELS 3 Zrotation Yrotation Xrotation
					JOINT LeftToeBase
					{
						OFFSET 0.157640 -0.433110 2.322550
						CHANNELS 3 Zrotation Yrotation Xrotation
						End Site
						{
							OFFSET 0.000000 0.000000 0.000000
						}
					}
				}
			}
		}
	}
	JOINT RHipJoint
	{
		OFFSET 0.000000 0.000000 0.000000
		CHANNELS 3 Zrotation Yrotation Xrotation
		JOINT RightUpLeg
		{
			OFFSET -1.305520 -1.794630 0.839290
			CHANNELS 3 Zrotation Yrotation Xrotation
			JOINT RightLeg
			{
				OFFSET -2.542530 -6.985550 0.000000
				CHANNELS 3 Zrotation Yrotation Xrotation
				JOINT RightFoot
				{
					OFFSET -2.568260 -7.056230 0.000000
					CHANNELS 3 Zrotation Yrotation Xrotation
					JOINT RightToeBase
					{
						OFFSET -0.164730 -0.452590 2.363150
						CHANNELS 3 Zrotation Yrotation Xrotation
						End Site
						{
							OFFSET 0.000000 0.000000 0.000000
						}
					}
				}
			}
		}
	}
	JOINT LowerBack
	{
		OFFSET 0.000000 0.000000 0.000000
		CHANNELS 3 Zrotation Yrotation Xrotation
		JOINT Spine
		{
			OFFSET 0.028270 2.035590 -0.193380
			CHANNELS 3 Zrotation Yrotation Xrotation
			JOINT Spine1
			{
				OFFSET 0.056720 2.048850 -0.042750
				CHANNELS 3 Zrotation Yrotation Xrotation
				JOINT Neck
				{
					OFFSET 0.000000 0.000000 0.000000
					CHANNELS 3 Zrotation Yrotation Xrotation
					JOINT Neck1
					{
						OFFSET -0.054170 1.746240 0.172020
						CHANNELS 3 Zrotation Yrotation Xrotation
						JOINT Head
						{
							OFFSET 0.104070 1.761360 -0.123970
							CHANNELS 3 Zrotation Yrotation Xrotation
							End Site
							{
								OFFSET 0.000000 0.000000 0.000000
							}
						}
					}
				}
				JOINT LeftShoulder
				{
					OFFSET 0.000000 0.000000 0.000000
					CHANNELS 3 Zrotation Yrotation Xrotation
					JOINT LeftArm
					{
						OFFSET 3.362410 1.200890 -0.311210
						CHANNELS 3 Zrotation Yrotation Xrotation
						JOINT LeftForeArm
						{
							OFFSET 4.983000 -0.000000 -0.000000
							CHANNELS 3 Zrotation Yrotation Xrotation
							JOINT LeftHand
							{
								OFFSET 3.483560 -0.000000 -0.000000
								CHANNELS 3 Zrotation Yrotation Xrotation
								JOINT LeftFingerBase
								{
									OFFSET 0.000000 0.000000 0.000000
									CHANNELS 3 Zrotation Yrotation Xrotation
									JOINT LeftHandIndex1
									{
										OFFSET 0.715260 -0.000000 -0.000000
										CHANNELS 3 Zrotation Yrotation Xrotation
										End Site
										{
											OFFSET 0.000000 0.000000 0.000000
										}
									}
								}
								JOINT LThumb
								{
									OFFSET 0.000000 0.000000 0.000000
									CHANNELS 3 Zrotation Yrotation Xrotation
									End Site
									{
										OFFSET 0.000000 0.000000 0.000000
									}
								}
							}
						}
					}
				}
				JOINT RightShoulder
				{
					OFFSET 0.000000 0.000000 0.000000
					CHANNELS 3 Zrotation Yrotation Xrotation
					JOINT RightArm
					{
						OFFSET -3.136600 1.374050 -0.404650
						CHANNELS 3 Zrotation Yrotation Xrotation
						JOINT RightForeArm
						{
							OFFSET -5.241900 -0.000000 -0.000000
							CHANNELS 3 Zrotation Yrotation Xrotation
							JOINT RightHand
							{
								OFFSET -3.444170 -0.000000 -0.000000
								CHANNELS 3 Zrotation Yrotation Xrotation
								JOINT RightFingerBase
								{
									OFFSET 0.000000 0.000000 0.000000
									CHANNELS 3 Zrotation Yrotation Xrotation
									JOINT RightHandIndex1
									{
										OFFSET -0.622530 -0.000000 -0.000000
										CHANNELS 3 Zrotation Yrotation Xrotation
										End Site
										{
											OFFSET 0.000000 0.000000 0.000000
										}
									}
								}
								JOINT RThumb
								{
									OFFSET 0.000000 0.000000 0.000000
									CHANNELS 3 Zrotation Yrotation Xrotation
									End Site
									{
										OFFSET 0.000000 0.000000 0.000000
									}
								}
							}
						}
					}
				}
			}
		}
	}
}
MOTION
Frames: 11
Frame Time: 0.033333
0.460535 17.817678 -1.499337 1.401672 14.007589 17.901894 -10.661293 -1.304049 -7.404048 -10.261823 1.021699 -1.188572 -1.777867 3.960160 4.543441 1.383267 -7.160926 -25.773569 0.000000 0.000000 0.000000 19.332808 14.256548 20.209828 -15.082186 16.977017 -6.042747 5.281823 14.472157 3.320372 -10.088646 25.273664 -32.091000 0.000000 0.000000 0.000000 -9.145492 -4.269832 10.244202 12.121507 -1.566473 -12.753259 -2.063212 -1.614404 -4.714445 6.136441 0.439370 -8.069222 1.997523 0.147255 1.320869 0.000000 0.000000 0.000000 3.592736 9.767556 6.766638 -73.322055 -9.505593 2.023091 -41.506632 -8.255259 -0.078650 -1.395118 -5.007651 -0.039546 -1.387683 -5.010348 -0.000000 0.000000 0.000000 0.000000 0.000000 0.000000 0.000000 -12.146817 -11.084707 11.581943 75.509888 1.885268 15.438694 21.081729 73.866854 0.259290 -0.426940 12.255218 0.127211 -0.452098 12.257593 0.000000 0.000000 0.000000 0.000000 0.000000 0.000000 0.000000 
0.456517 17.810523 -1.496196 1.320340 14.162557 17.862267 -10.558421 -1.360760 -7.489152 -10.255508 1.016183 -1.117283 -1.721128 3.988018 4.701352 1.377026 -7.251751 -25.922058 0.000000 0.000000 0.000000 19.362670 14.160120 20.212796 -14.970666 16.906535 -6.088937 5.480518 14.362138 3.370939 -10.424745 25.172697 -32.347064 0.000000 0.000000 0.000000 -9.279803 -4.255920 10.285334 12.725741 -1.434365 -12.939529 -2.558896 -1.501966 -5.093771 6.555325 0.445451 -8.323253 1.769702 0.137054 1.352920 0.000000 0.000000 0.000000 2.778236 9.832092 6.874563 -73.337734 -9.311268 1.498632 -40.028021 -6.105760 -0.084522 -1.324042 -4.686255 -0.042438 -1.317514 -4.688681 -0.000000 0.000000 0.000000 0.000000 0.000000 0.000000 0.000000 -12.238531 -10.843617 11.811173 75.708627 1.442225 15.500060 20.552839 74.656988 0.258424 -0.498808 12.320306 0.126692 -0.525133 12.322515 0.000000 0.000000 0.000000 0.000000 0.000000 0.000000 0.000000 
0.453764 17.802495 -1.494098 1.253270 14.270146 17.828221 -10.460933 -1.402502 -7.557936 -10.264773 1.018918 -1.037036 -1.678965 3.997396 4.798552 1.371586 -7.333400 -26.066690 0.000000 0.000000 0.000000 19.426466 14.042798 20.190601 -14.908208 16.793608 -6.135941 5.557353 14.177821 3.395862 -10.570136 25.028888 -32.460397 0.000000 0.000000 0.000000 -9.431598 -4.232034 10.327202 13.284749 -1.298469 -13.094359 -3.000158 -1.395903 -5.422351 6.928114 0.447825 -8.603998 1.562190 0.126405 1.400460 0.000000 0.000000 0.000000 2.078347 9.873292 6.988569 -73.317346 -9.112799 1.099930 -38.774543 -4.474576 -0.088184 -1.271164 -4.442710 -0.044239 -1.265328 -4.444927 -0.000000 0.000000 0.000000 0.000000 0.000000 0.000000 0.000000 -12.340948 -10.609068 11.999708 75.911112 1.053241 15.567117 20.007263 75.450200 0.257653 -0.573663 12.380203 0.126220 -0.601151 12.382229 0.000000 0.000000 0.000000 0.000000 0.000000 0.000000 0.000000 
0.453501 17.793866 -1.494006 1.199868 14.326310 17.801408 -10.368798 -1.426997 -7.610790 -10.290982 1.029242 -0.950013 -1.663907 3.987292 4.828788 1.366249 -7.402434 -26.201435 0.000000 0.000000 0.000000 19.521210 13.900919 20.147219 -14.905879 16.629428 -6.181381 5.478287 13.905117 3.401369 -10.496654 24.840285 -32.403381 0.000000 0.000000 0.000000 -9.597505 -4.198480 10.368778 13.787838 -1.160799 -13.227325 -3.376481 -1.296051 -5.688941 7.252921 0.445827 -8.899839 1.374996 0.115679 1.452921 0.000000 0.000000 0.000000 1.507550 9.889166 7.099236 -73.282145 -8.929562 0.799365 -37.760053 -3.266882 -0.090476 -1.232600 -4.261170 -0.045364 -1.227283 -4.263228 -0.000000 0.000000 0.000000 0.000000 0.000000 0.000000 0.000000 -12.456776 -10.376985 12.149148 76.116533 0.724185 15.636197 19.444389 76.245582 0.256860 -0.651720 12.434475 0.125737 -0.680371 12.436297 0.000000 0.000000 0.000000 0.000000 0.000000 0.000000 0.000000 
0.455598 17.784520 -1.496225 1.161835 14.335223 17.789097 -10.281694 -1.436959 -7.654216 -10.337578 1.048701 -0.855089 -1.677003 3.954507 4.780893 1.361346 -7.456910 -26.323875 0.000000 0.000000 0.000000 19.638239 13.751469 20.106953 -14.971462 16.429983 -6.223699 5.248294 13.575685 3.380104 -10.240283 24.617163 -32.179741 0.000000 0.000000 0.000000 -9.771927 -4.159860 10.406961 14.214603 -1.027840 -13.351389 -3.667113 -1.206918 -5.870573 7.521887 0.438152 -9.196916 1.210477 0.105332 1.496195 0.000000 0.000000 0.000000 1.097479 9.870574 7.197611 -73.256642 -8.783461 0.584009 -37.020761 -2.446994 -0.091917 -1.206347 -4.136086 -0.046072 -1.201386 -4.138032 -0.000000 0.000000 0.000000 0.000000 0.000000 0.000000 0.000000 -12.590456 -10.144869 12.255850 76.324277 0.468622 15.704977 18.861822 77.044827 0.256003 -0.733284 12.482849 0.125221 -0.763100 12.484447 0.000000 0.000000 0.000000 0.000000 0.000000 0.000000 0.000000 
0.459508 17.774709 -1.499760 1.137457 14.319742 17.790326 -10.200485 -1.441352 -7.701589 -10.398733 1.070847 -0.762165 -1.707459 3.916383 4.709774 1.357094 -7.506696 -26.445968 0.000000 0.000000 0.000000 19.763345 13.590693 20.093074 -15.093006 16.215163 -6.274913 4.901450 13.214161 3.348930 -9.888568 24.371000 -31.830275 0.000000 0.000000 0.000000 -9.938675 -4.113497 10.430993 14.584145 -0.903688 -13.448756 -3.947454 -1.118854 -6.058808 7.757551 0.440234 -9.442238 1.088152 0.097702 1.554655 0.000000 0.000000 0.000000 0.695688 9.880124 7.285325 -73.211652 -8.638649 0.394359 -36.289067 -1.676312 -0.092901 -1.182208 -4.017600 -0.046552 -1.177583 -4.019441 -0.000000 0.000000 0.000000 0.000000 0.000000 0.000000 0.000000 -12.688227 -9.959553 12.355169 76.507472 0.238166 15.741227 18.408754 77.664748 0.254857 -0.797769 12.518586 0.124579 -0.828533 12.519994 0.000000 0.000000 0.000000 0.000000 0.000000 0.000000 0.000000 
0.462993 17.764174 -1.504056 1.129566 14.303533 17.816729 -10.124717 -1.449144 -7.768065 -10.477777 1.097612 -0.671229 -1.737251 3.871064 4.612072 1.354935 -7.552998 -26.568506 0.000000 0.000000 0.000000 19.877235 13.458108 20.153182 -15.279445 16.026171 -6.330992 4.465782 12.892322 3.287010 -9.535216 24.139312 -31.391490 0.000000 0.000000 0.000000 -10.086380 -4.067567 10.433190 14.875196 -0.799679 -13.526702 -4.211230 -1.039926 -6.246555 7.951329 0.455180 -9.612270 1.019686 0.094206 1.621195 0.000000 0.000000 0.000000 0.305947 9.917897 7.358630 -73.146150 -8.500503 0.231919 -35.566460 -0.952838 -0.093432 -1.160133 -3.905292 -0.046807 -1.155827 -3.907032 -0.000000 0.000000 0.000000 0.000000 0.000000 0.000000 0.000000 -12.740755 -9.834771 12.446305 76.659658 0.034686 15.747170 18.118796 78.075174 0.253658 -0.839648 12.542718 0.123933 -0.871073 12.543994 0.000000 0.000000 0.000000 0.000000 0.000000 0.000000 0.000000 
0.466741 17.754016 -1.508771 1.133709 14.322357 17.879650 -10.055304 -1.470606 -7.863693 -10.566819 1.122634 -0.590407 -1.771989 3.817559 4.490649 1.354733 -7.591978 -26.673369 0.000000 0.000000 0.000000 19.953845 13.403721 20.332610 -15.545877 15.898214 -6.372928 3.929819 12.663436 3.186366 -9.260136 23.971263 -30.896455 0.000000 0.000000 0.000000 -10.203480 -4.033530 10.405602 15.084908 -0.725140 -13.596183 -4.456975 -0.978989 -6.429533 8.103039 0.483344 -9.700348 1.005310 0.095233 1.688991 0.000000 0.000000 0.000000 -0.071807 9.978528 7.417459 -73.060413 -8.371329 0.095793 -34.853427 -0.273568 -0.093537 -1.140090 -3.798654 -0.046850 -1.136084 -3.800298 -0.000000 0.000000 0.000000 0.000000 0.000000 0.000000 0.000000 -12.747761 -9.774711 12.529777 76.780029 -0.145301 15.727920 17.992966 78.283485 0.252601 -0.858121 12.557769 0.123382 -0.889905 12.558980 0.000000 0.000000 0.000000 0.000000 0.000000 0.000000 0.000000 
0.471736 17.745612 -1.513497 1.141803 14.435748 18.001895 -9.990868 -1.523555 -8.009052 -10.656574 1.136976 -0.530385 -1.820633 3.751464 4.342531 1.357468 -7.618398 -26.734798 0.000000 0.000000 0.000000 19.930492 13.523991 20.714367 -15.934225 15.878084 -6.353103 3.256778 12.613685 3.009420 -9.180986 23.953543 -30.387597 0.000000 0.000000 0.000000 -10.259083 -4.030824 10.332092 15.183846 -0.702805 -13.665348 -4.675261 -0.953527 -6.602609 8.198576 0.528734 -9.671113 1.061941 0.102422 1.750394 0.000000 0.000000 0.000000 -0.431755 10.064238 7.455608 -72.954048 -8.259433 -0.009561 -34.151054 0.365031 -0.093193 -1.122056 -3.697342 -0.046669 -1.118334 -3.698892 -0.000000 0.000000 0.000000 0.000000 0.000000 0.000000 0.000000 -12.694919 -9.807113 12.603193 76.855964 -0.295961 15.678302 18.088677 78.224590 0.251925 -0.844432 12.562676 0.123052 -0.876153 12.563918 0.000000 0.000000 0.000000 0.000000 0.000000 0.000000 0.000000 
0.480188 17.741462 -1.515290 1.133052 14.588325 18.126834 -9.940242 -1.578310 -8.151118 -10.712000 1.125748 -0.518387 -1.886643 3.714434 4.282133 1.360819 -7.639911 -26.759920 0.000000 0.000000 0.000000 19.837956 13.710403 21.126265 -16.339686 15.881006 -6.274003 2.507823 12.561635 2.891192 -9.158255 24.012720 -29.897680 0.000000 0.000000 0.000000 -10.264456 -4.041251 10.234197 15.247720 -0.702545 -13.704301 -4.876102 -0.944010 -6.783497 8.269235 0.572873 -9.601596 1.126205 0.109950 1.811038 0.000000 0.000000 0.000000 -0.779453 10.162315 7.486578 -72.827269 -8.150762 -0.087492 -33.518416 0.918159 -0.092552 -1.107803 -3.609183 -0.046342 -1.104325 -3.610653 -0.000000 0.000000 0.000000 0.000000 0.000000 0.000000 0.000000 -12.614327 -9.880651 12.667860 76.890263 -0.435599 15.628595 18.252636 78.073955 0.251671 -0.820523 12.564150 0.122945 -0.852023 12.565457 0.000000 0.000000 0.000000 0.000000 0.000000 0.000000 0.000000 
0.492346 17.742405 -1.513136 1.107055 14.756015 18.238985 -9.912265 -1.626080 -8.272271 -10.723060 1.085656 -0.565534 -1.967053 3.722327 4.347274 1.365133 -7.657853 -26.751911 0.000000 0.000000 0.000000 19.678485 13.927909 21.518967 -16.720249 15.897721 -6.144938 1.768470 12.504882 2.829697 -9.181746 24.136114 -29.480434 0.000000 0.000000 0.000000 -10.207541 -4.058826 10.115042 15.257543 -0.726153 -13.691031 -5.047616 -0.947861 -6.973611 8.303804 0.614465 -9.472383 1.201658 0.117791 1.870710 0.000000 0.000000 0.000000 -1.104205 10.282035 7.504179 -72.681819 -8.051745 -0.134377 -32.983533 1.374554 -0.091681 -1.097578 -3.536864 -0.045902 -1.094298 -3.538267 -0.000000 0.000000 0.000000 0.000000 0.000000 0.000000 0.000000 -12.494326 -10.007487 12.719849 76.863746 -0.554745 15.577644 18.516471 77.784525 0.251877 -0.782108 12.559144 0.123082 -0.813171 12.560560 0.000000 0.000000 0.000000 0.000000 0.000000 0.000000 0.000000 
